<svg version="1.0" xmlns="http://www.w3.org/2000/svg" width="600.000000pt" height="600.000000pt"
    viewBox="0 0 600.000000 600.000000" preserveAspectRatio="xMidYMid meet">
    <metadata>
        Created by potrace 1.16, written by Peter Selinger 2001-2019
    </metadata>
    <g transform="translate(0.000000,600.000000) scale(0.100000,-0.100000)" fill="#000000" stroke="none">
        <path d="M1445 5918 c-24 -64 -835 -2445 -835 -2450 0 -5 126 -8 280 -8 154 0
280 2 280 4 0 4 115 375 171 554 l11 32 441 -2 441 -3 90 -292 91 -293 299 0
c234 0 297 3 293 13 -7 18 -754 2204 -799 2340 l-40 117 -359 0 c-279 0 -361
-3 -364 -12z m515 -936 c89 -288 160 -525 158 -528 -3 -2 -151 -3 -330 -2
l-324 3 143 460 c79 253 152 491 164 528 11 38 22 67 24 65 1 -1 76 -238 165
-526z" />
        <path d="M3350 4694 l0 -1236 568 5 c522 4 576 6 677 25 306 58 503 156 634
314 67 82 145 238 176 356 45 172 58 324 52 620 -5 293 -17 388 -69 547 -85
262 -256 428 -533 518 -232 76 -354 87 -987 87 l-518 0 0 -1236z m1125 792
c162 -45 261 -122 320 -249 60 -127 70 -204 70 -527 -1 -254 -3 -296 -23 -385
-51 -235 -161 -356 -377 -418 -58 -17 -110 -21 -307 -24 l-238 -5 0 817 0 817
248 -5 c190 -3 261 -8 307 -21z" />
        <path d="M2090 2370 l0 -240 345 0 345 0 0 -1000 0 -1000 285 0 285 0 0 1000
0 1000 340 0 340 0 0 240 0 240 -970 0 -970 0 0 -240z" />
        <path d="M690 2405 l0 -195 145 0 145 0 0 -845 0 -845 -145 0 -145 0 0 -195 0
-195 575 0 575 0 0 195 0 195 -145 0 -145 0 0 845 0 845 145 0 145 0 0 195 0
195 -575 0 -575 0 0 -195z" />
        <path d="M4350 651 c-127 -41 -187 -143 -178 -302 3 -57 12 -91 32 -133 46
-94 113 -126 266 -126 116 0 170 16 222 67 51 50 68 106 68 222 -1 137 -34
206 -125 254 -32 17 -61 22 -150 24 -60 1 -121 -1 -135 -6z" />
    </g>
</svg>